<svg width="19" height="20" viewBox="0 0 19 20" fill="none" xmlns="http://www.w3.org/2000/svg">
<path d="M9.08008 0C11.513 8.24954e-05 13.5146 1.91981 13.7607 4.38184H13.8291C15.497 4.38184 16.8931 5.69423 17.375 7.98145L18.126 14.0479C18.5556 17.8698 16.4635 19.9999 12.9629 20H5.21387C1.42855 19.9999 -0.505423 18.1105 0.114258 13.8125L0.841797 7.94238C1.24421 5.68324 2.67719 4.38184 4.38184 4.38184H4.38281C4.49542 3.26864 4.97235 2.22287 5.74219 1.42578C6.62909 0.507613 7.83145 -0.00546388 9.08008 0ZM4.38184 5.8291C3.363 5.8291 2.49355 6.61937 2.2168 8.16699L1.49316 14.0117C1.00894 17.3706 2.21788 18.5517 5.21387 18.5518H12.9629C15.7298 18.5517 17.1393 17.0655 16.7158 13.9971L16.0039 8.22949C15.6665 6.63789 14.8072 5.82911 13.8291 5.8291H4.38184ZM6.4209 8.5166C6.80521 8.51678 7.11714 8.8406 7.11719 9.24023C7.11719 9.6067 6.85445 9.91008 6.51465 9.95801L6.4209 9.96387H6.37793C5.99353 9.96377 5.68164 9.63995 5.68164 9.24023C5.68169 8.87399 5.94367 8.57158 6.2832 8.52344L6.37793 8.5166H6.4209ZM11.833 8.5166C12.2173 8.51676 12.5292 8.8406 12.5293 9.24023C12.5293 9.6067 12.2666 9.91008 11.9268 9.95801L11.833 9.96387H11.79C11.4056 9.96376 11.0938 9.63995 11.0938 9.24023C11.0938 8.87399 11.3558 8.57159 11.6953 8.52344L11.79 8.5166H11.833ZM9.07715 1.44824C8.19575 1.44439 7.34916 1.80549 6.72461 2.45215C6.21757 2.97715 5.89017 3.6549 5.78516 4.38184H12.3574C12.1195 2.72156 10.7427 1.44833 9.07715 1.44824Z" fill="#0D0D0E"/>
</svg>
