<svg width="24" height="24" viewBox="0 0 24 24" fill="none" xmlns="http://www.w3.org/2000/svg">
<g clip-path="url(#clip0_1_86)">
<path d="M12 2.75C12.7601 2.75 13.4889 2.98051 14.4375 3.52441C15.4057 4.07957 16.5381 4.92149 18.1172 6.09766C18.972 6.73433 19.5774 7.18616 20.0283 7.58203C20.4709 7.97057 20.7226 8.26996 20.8887 8.58203C21.2301 9.2238 21.25 9.9581 21.25 11.9512V13.4424C21.25 15.4841 21.248 16.9279 21.0762 18.0215C20.9099 19.0797 20.5988 19.7053 20.0479 20.1768C19.48 20.6627 18.6979 20.9493 17.4004 21.0986C16.0918 21.2492 14.3751 21.25 12 21.25C9.62494 21.25 7.90823 21.2492 6.59961 21.0986C5.30208 20.9493 4.52003 20.6627 3.95215 20.1768C3.40123 19.7053 3.09014 19.0797 2.92383 18.0215C2.75202 16.9279 2.75 15.4841 2.75 13.4424V11.9512C2.75 9.9581 2.7699 9.2238 3.11133 8.58203C3.27739 8.26996 3.52915 7.97057 3.97168 7.58203C4.42257 7.18616 5.02801 6.73433 5.88281 6.09766C7.46195 4.92149 8.5943 4.07957 9.5625 3.52441C10.5111 2.98051 11.2399 2.75 12 2.75Z" stroke="black" stroke-width="1.5"/>
<rect x="15.25" y="16.25" width="6.5" height="6.5" rx="3.25" transform="rotate(-180 15.25 16.25)" stroke="black" stroke-width="1.5"/>
</g>
<defs>
<clipPath id="clip0_1_86">
<rect width="24" height="24" fill="white"/>
</clipPath>
</defs>
</svg>
