<svg width="24" height="24" viewBox="0 0 24 24" fill="none" xmlns="http://www.w3.org/2000/svg">
<g clip-path="url(#clip0_1_113)">
<path d="M10.802 3.07129C11.5433 2.64332 12.4563 2.64341 13.1975 3.07129L19.1341 6.49805C19.8752 6.92609 20.3313 7.71734 20.3313 8.57324V15.4268C20.3313 16.2827 19.8752 17.0739 19.1341 17.502L13.1975 20.9287C12.4563 21.3566 11.5433 21.3567 10.802 20.9287L4.86649 17.502C4.12516 17.0739 3.66824 16.2828 3.66824 15.4268V8.57324C3.66824 7.71723 4.12516 6.92605 4.86649 6.49805L10.802 3.07129Z" stroke="#0D0D0E" stroke-width="1.5"/>
<rect x="15.25" y="15.25" width="6.5" height="6.5" rx="3.25" transform="rotate(-180 15.25 15.25)" stroke="#0D0D0E" stroke-width="1.5"/>
</g>
<defs>
<clipPath id="clip0_1_113">
<rect width="24" height="24" fill="white"/>
</clipPath>
</defs>
</svg>
